HIERARCHY
ROOT Hips
{
	OFFSET 0.000000 71.427986 0.000000
	CHANNELS 6 Xposition Yposition Zposition Xrotation Yrotation Zrotation
	JOINT Pelvis
	{
		OFFSET 0.000000 0.000000 0.000000
		CHANNELS 3 Xrotation Yrotation Zrotation
		JOINT LeftUpLeg
		{
			OFFSET 6.797100 -2.508499 -1.318700
			CHANNELS 3 Xrotation Yrotation Zrotation
			JOINT LeftLeg
			{
				OFFSET 0.069008 -29.241863 0.690200
				CHANNELS 3 Xrotation Yrotation Zrotation
				JOINT LeftFoot
				{
					OFFSET -0.069008 -29.568123 -0.266800
					CHANNELS 3 Xrotation Yrotation Zrotation
					JOINT LeftToeBase
					{
						OFFSET 3.145500 -8.631000 16.059900
						CHANNELS 3 Xrotation Yrotation Zrotation
						End Site
						{
							OFFSET 0.000000 18.501587 0.000000
						}
					}
				}
			}
			JOINT Left_ShortSleeve
			{
				OFFSET 0.265923 -10.480953 1.153800
				CHANNELS 3 Xrotation Yrotation Zrotation
				End Site
				{
					OFFSET 1.725763 19.823879 0.000000
				}
			}
		}
		JOINT RightUpLeg
		{
			OFFSET -6.797100 -2.508499 -1.318700
			CHANNELS 3 Xrotation Yrotation Zrotation
			JOINT RightLeg
			{
				OFFSET -0.082453 -29.241932 0.688000
				CHANNELS 3 Xrotation Yrotation Zrotation
				JOINT RightFoot
				{
					OFFSET 0.082453 -29.568058 -0.264600
					CHANNELS 3 Xrotation Yrotation Zrotation
					JOINT RightToeBase
					{
						OFFSET -3.115300 -8.682800 16.113400
						CHANNELS 3 Xrotation Yrotation Zrotation
						End Site
						{
							OFFSET 0.000000 18.567114 0.000000
						}
					}
				}
			}
			JOINT Right_ShortSleeve
			{
				OFFSET -0.265923 -10.480953 1.153800
				CHANNELS 3 Xrotation Yrotation Zrotation
				End Site
				{
					OFFSET -1.725766 19.823910 0.000000
				}
			}
		}
	}
	JOINT Spine
	{
		OFFSET 0.000000 13.368103 0.470500
		CHANNELS 3 Xrotation Yrotation Zrotation
		JOINT Spine1
		{
			OFFSET 0.147000 13.837402 0.538800
			CHANNELS 3 Xrotation Yrotation Zrotation
			JOINT Spine2
			{
				OFFSET 0.168000 16.242897 -1.435500
				CHANNELS 3 Xrotation Yrotation Zrotation
				JOINT Neck
				{
					OFFSET 0.217200 18.631500 -1.679100
					CHANNELS 3 Xrotation Yrotation Zrotation
					JOINT Head
					{
						OFFSET 0.000000 6.599396 1.385900
						CHANNELS 3 Xrotation Yrotation Zrotation
						JOINT Hat
						{
							OFFSET -0.532200 27.220596 -10.096100
							CHANNELS 3 Xrotation Yrotation Zrotation
							End Site
							{
								OFFSET 0.000000 22.029861 0.000000
							}
						}
						JOINT HairD
						{
							OFFSET -10.777400 17.437393 -1.325900
							CHANNELS 3 Xrotation Yrotation Zrotation
							JOINT HairD1
							{
								OFFSET -3.290299 -11.051193 1.062200
								CHANNELS 3 Xrotation Yrotation Zrotation
								End Site
								{
									OFFSET 0.000000 11.579437 0.000000
								}
							}
						}
						JOINT HairB
						{
							OFFSET -10.777400 17.437393 1.467900
							CHANNELS 3 Xrotation Yrotation Zrotation
							JOINT HairB1
							{
								OFFSET -1.561200 -12.956299 3.590200
								CHANNELS 3 Xrotation Yrotation Zrotation
								End Site
								{
									OFFSET 0.000000 13.534866 0.000000
								}
							}
						}
						JOINT HairA
						{
							OFFSET 9.713100 17.437393 1.467900
							CHANNELS 3 Xrotation Yrotation Zrotation
							JOINT HairA1
							{
								OFFSET 1.561200 -12.956299 3.590200
								CHANNELS 3 Xrotation Yrotation Zrotation
								End Site
								{
									OFFSET 0.000000 13.534866 0.000000
								}
							}
						}
						JOINT HairC
						{
							OFFSET 9.713100 17.437393 -1.325900
							CHANNELS 3 Xrotation Yrotation Zrotation
							JOINT HairC1
							{
								OFFSET 3.290300 -11.051193 1.062200
								CHANNELS 3 Xrotation Yrotation Zrotation
								End Site
								{
									OFFSET 0.000000 11.579437 0.000000
								}
							}
						}
					}
				}
				JOINT LeftShoulder
				{
					OFFSET 5.101800 15.108002 -2.763700
					CHANNELS 3 Xrotation Yrotation Zrotation
					JOINT LeftArm
					{
						OFFSET 9.825497 2.506317 -1.597400
						CHANNELS 3 Xrotation Yrotation Zrotation
						JOINT LeftForeArm
						{
							OFFSET 21.966244 0.000000 0.000000
							CHANNELS 3 Xrotation Yrotation Zrotation
							JOINT LeftHand
							{
								OFFSET 33.879036 0.000000 0.000000
								CHANNELS 3 Xrotation Yrotation Zrotation
								JOINT LeftHandThumb1
								{
									OFFSET 6.715286 -2.359680 3.363841
									CHANNELS 3 Xrotation Yrotation Zrotation
									JOINT LeftHandThumb2
									{
										OFFSET 2.507072 -1.447464 1.447461
										CHANNELS 3 Xrotation Yrotation Zrotation
										JOINT LeftHandThumb3
										{
											OFFSET 2.898338 -1.673355 1.673357
											CHANNELS 3 Xrotation Yrotation Zrotation
											End Site
											{
												OFFSET -0.295959 3.727692 -0.131651
											}
										}
									}
								}
								JOINT LeftHandIndex1
								{
									OFFSET 14.190811 -0.254547 3.840278
									CHANNELS 3 Xrotation Yrotation Zrotation
									JOINT LeftHandIndex2
									{
										OFFSET 3.551727 0.000000 -0.000000
										CHANNELS 3 Xrotation Yrotation Zrotation
										JOINT LeftHandIndex3
										{
											OFFSET 2.894196 0.000000 0.000000
											CHANNELS 3 Xrotation Yrotation Zrotation
											End Site
											{
												OFFSET -1.000603 2.690872 0.366626
											}
										}
									}
								}
								JOINT LeftHandMiddle1
								{
									OFFSET 13.776489 0.000000 0.000000
									CHANNELS 3 Xrotation Yrotation Zrotation
									JOINT LeftHandMiddle2
									{
										OFFSET 3.438232 0.000000 0.000000
										CHANNELS 3 Xrotation Yrotation Zrotation
										JOINT LeftHandMiddle3
										{
											OFFSET 3.691551 0.000000 0.000000
											CHANNELS 3 Xrotation Yrotation Zrotation
											End Site
											{
												OFFSET -1.082298 3.499527 0.457670
											}
										}
									}
								}
								JOINT LeftHandRing1
								{
									OFFSET 13.966164 -0.268127 -3.067488
									CHANNELS 3 Xrotation Yrotation Zrotation
									JOINT LeftHandRing2
									{
										OFFSET 3.162567 0.000000 0.000000
										CHANNELS 3 Xrotation Yrotation Zrotation
										JOINT LeftHandRing3
										{
											OFFSET 3.324348 0.000000 0.000000
											CHANNELS 3 Xrotation Yrotation Zrotation
											End Site
											{
												OFFSET -0.861900 3.184998 0.405154
											}
										}
									}
								}
								JOINT LeftHandPinky1
								{
									OFFSET 13.131393 -0.168503 -5.746925
									CHANNELS 3 Xrotation Yrotation Zrotation
									JOINT LeftHandPinky2
									{
										OFFSET 2.849182 0.000000 0.000000
										CHANNELS 3 Xrotation Yrotation Zrotation
										JOINT LeftHandPinky3
										{
											OFFSET 2.805038 0.000000 0.000000
											CHANNELS 3 Xrotation Yrotation Zrotation
											End Site
											{
												OFFSET -0.882500 2.642609 0.325652
											}
										}
									}
								}
							}
							JOINT Left_Sleeve
							{
								OFFSET 6.592125 -0.646545 0.805568
								CHANNELS 3 Xrotation Yrotation Zrotation
								End Site
								{
									OFFSET -0.000179 20.275787 -0.000000
								}
							}
						}
					}
				}
				JOINT RightShoulder
				{
					OFFSET -5.731700 15.108002 -2.763700
					CHANNELS 3 Xrotation Yrotation Zrotation
					JOINT RightArm
					{
						OFFSET -9.825497 2.506317 -1.597400
						CHANNELS 3 Xrotation Yrotation Zrotation
						JOINT RightForeArm
						{
							OFFSET -21.966242 0.000000 0.000000
							CHANNELS 3 Xrotation Yrotation Zrotation
							JOINT RightHand
							{
								OFFSET -33.879032 0.000000 0.000000
								CHANNELS 3 Xrotation Yrotation Zrotation
								JOINT RightHandThumb1
								{
									OFFSET -6.715286 -2.359680 3.363841
									CHANNELS 3 Xrotation Yrotation Zrotation
									JOINT RightHandThumb2
									{
										OFFSET -2.507072 -1.447464 1.447461
										CHANNELS 3 Xrotation Yrotation Zrotation
										JOINT RightHandThumb3
										{
											OFFSET -2.898338 -1.673355 1.673357
											CHANNELS 3 Xrotation Yrotation Zrotation
											End Site
											{
												OFFSET 0.295959 3.727692 -0.131651
											}
										}
									}
								}
								JOINT RightHandIndex1
								{
									OFFSET -14.190811 -0.254547 3.840278
									CHANNELS 3 Xrotation Yrotation Zrotation
									JOINT RightHandIndex2
									{
										OFFSET -3.551727 0.000000 -0.000000
										CHANNELS 3 Xrotation Yrotation Zrotation
										JOINT RightHandIndex3
										{
											OFFSET -2.894196 0.000000 0.000000
											CHANNELS 3 Xrotation Yrotation Zrotation
											End Site
											{
												OFFSET 1.000603 2.690872 0.366626
											}
										}
									}
								}
								JOINT RightHandMiddle1
								{
									OFFSET -13.776489 0.000000 0.000000
									CHANNELS 3 Xrotation Yrotation Zrotation
									JOINT RightHandMiddle2
									{
										OFFSET -3.438232 0.000000 0.000000
										CHANNELS 3 Xrotation Yrotation Zrotation
										JOINT RightHandMiddle3
										{
											OFFSET -3.691551 0.000000 0.000000
											CHANNELS 3 Xrotation Yrotation Zrotation
											End Site
											{
												OFFSET 1.082298 3.499527 0.457670
											}
										}
									}
								}
								JOINT RightHandRing1
								{
									OFFSET -13.966164 -0.268127 -3.067488
									CHANNELS 3 Xrotation Yrotation Zrotation
									JOINT RightHandRing2
									{
										OFFSET -3.162567 0.000000 0.000000
										CHANNELS 3 Xrotation Yrotation Zrotation
										JOINT RightHandRing3
										{
											OFFSET -3.324348 0.000000 0.000000
											CHANNELS 3 Xrotation Yrotation Zrotation
											End Site
											{
												OFFSET 0.861900 3.184998 0.405154
											}
										}
									}
								}
								JOINT RightHandPinky1
								{
									OFFSET -13.131393 -0.168503 -5.746925
									CHANNELS 3 Xrotation Yrotation Zrotation
									JOINT RightHandPinky2
									{
										OFFSET -2.849182 0.000000 0.000000
										CHANNELS 3 Xrotation Yrotation Zrotation
										JOINT RightHandPinky3
										{
											OFFSET -2.805038 0.000000 0.000000
											CHANNELS 3 Xrotation Yrotation Zrotation
											End Site
											{
												OFFSET 0.882500 2.642609 0.325652
											}
										}
									}
								}
							}
							JOINT Right_Sleeve
							{
								OFFSET -6.592125 -0.646545 0.805568
								CHANNELS 3 Xrotation Yrotation Zrotation
								End Site
								{
									OFFSET 0.000179 20.275787 -0.000000
								}
							}
						}
					}
				}
				JOINT Bind_Right_JacketString
				{
					OFFSET -3.534800 11.969597 7.200700
					CHANNELS 3 Xrotation Yrotation Zrotation
					JOINT Bind_Right_JacketString1
					{
						OFFSET -0.319900 -6.102600 2.794100
						CHANNELS 3 Xrotation Yrotation Zrotation
						End Site
						{
							OFFSET 0.000000 6.719452 0.000000
						}
					}
				}
				JOINT Bind_Left_JacketString
				{
					OFFSET 2.904800 11.969597 7.200700
					CHANNELS 3 Xrotation Yrotation Zrotation
					JOINT Bind_Left_JacketString1
					{
						OFFSET 0.364800 -5.904503 3.186800
						CHANNELS 3 Xrotation Yrotation Zrotation
						End Site
						{
							OFFSET 0.000000 6.719513 0.000000
						}
					}
				}
				JOINT HairE
				{
					OFFSET 5.915200 17.612701 -11.592200
					CHANNELS 3 Xrotation Yrotation Zrotation
					JOINT HairE1
					{
						OFFSET 0.289200 -7.171898 -1.284500
						CHANNELS 3 Xrotation Yrotation Zrotation
						End Site
						{
							OFFSET 0.000000 7.291756 0.000000
						}
					}
				}
				JOINT HairF
				{
					OFFSET -0.864800 17.612701 -11.592200
					CHANNELS 3 Xrotation Yrotation Zrotation
					JOINT HairF1
					{
						OFFSET 0.000000 -14.087097 -2.127501
						CHANNELS 3 Xrotation Yrotation Zrotation
						End Site
						{
							OFFSET 0.000000 14.246841 0.000000
						}
					}
				}
				JOINT HairG
				{
					OFFSET -8.087700 17.612701 -11.592200
					CHANNELS 3 Xrotation Yrotation Zrotation
					JOINT HairG1
					{
						OFFSET -0.293600 -6.081398 -0.910100
						CHANNELS 3 Xrotation Yrotation Zrotation
						End Site
						{
							OFFSET 0.000000 6.156120 0.000000
						}
					}
				}
			}
		}
	}
	JOINT Pouch
	{
		OFFSET 0.000000 4.394501 10.847300
		CHANNELS 3 Xrotation Yrotation Zrotation
		End Site
		{
			OFFSET 0.000000 21.880577 0.000000
		}
	}
	JOINT Bag
	{
		OFFSET -13.229000 4.813004 -0.593300
		CHANNELS 3 Xrotation Yrotation Zrotation
		End Site
		{
			OFFSET 0.000000 21.880577 0.000000
		}
	}
	JOINT OccupyGuyFacialAnim_Joint
	{
		OFFSET 1.000000 -70.206398 -1.655000
		CHANNELS 3 Xrotation Yrotation Zrotation
		End Site
		{
			OFFSET 0.000000 21.880577 0.000000
		}
	}
}
MOTION
Frames: 4
Frame Time: 0.033333
0.212380 68.011650 1.254113 -2.971237 10.720549 2.766486 -0.000000 0.000000 -0.000000 -35.427573 -2.663699 -9.086133 61.373191 7.578700 6.571163 1.354040 0.643564 -3.194162 0.000002 0.000001 0.000000 -0.000001 0.000000 -0.000000 -25.231834 -11.800474 -2.190900 54.225691 1.127639 -3.787089 -15.137472 -2.642751 -3.743453 -0.000000 -0.000000 -0.000000 -0.000000 0.000000 -0.000001 12.142718 1.201398 -1.374411 2.229220 0.376751 -0.503056 2.226936 0.382880 -0.515812 1.416932 -1.225395 0.124810 -4.132984 -13.251850 2.777458 0.000001 0.000000 -0.000000 0.000001 0.000000 -0.000000 0.000001 0.000000 0.000000 0.000001 0.000000 -0.000000 0.000001 0.000000 0.000000 0.000001 0.000000 -0.000000 0.000001 0.000000 0.000000 0.000001 0.000000 -0.000000 0.000001 0.000000 -0.000000 1.725097 -11.589012 -9.127067 -3.819230 -8.142600 -45.053410 0.002986 -93.872529 0.002961 -124.787105 -4.178295 15.506795 -6.526038 -44.503221 12.312883 -10.560139 27.514900 -7.251925 -0.000001 0.000001 -0.000003 -4.866983 4.449316 -68.774302 4.239313 5.625424 -73.984261 0.000003 0.000000 -0.000000 -1.727354 6.047038 -72.105617 3.608323 5.405557 -67.426193 -0.000001 -0.000000 0.000002 -4.539902 4.932030 -70.875022 4.355080 5.657240 -75.161492 -0.000001 -0.000000 -0.000000 -7.394716 3.905621 -70.778914 3.352003 5.292219 -64.677213 -0.000000 0.000000 0.000003 -0.000002 0.000001 0.000000 4.552923 10.320511 -5.933970 -0.741011 33.528548 43.117775 0.000016 107.668623 -0.000016 -36.658578 -17.854500 8.326640 34.321332 15.731681 -0.977212 3.492018 -23.048969 -12.390983 0.000001 -0.000001 0.000000 -1.428349 -0.954536 29.979859 3.302260 -4.456117 73.068865 -0.000001 -0.000001 0.000002 -1.432070 -5.858180 79.208754 4.113204 -4.625343 83.285073 -0.000001 0.000001 -0.000001 -2.244645 -6.279297 84.320816 3.282742 -4.450159 72.817432 0.000000 0.000000 -0.000002 -0.727724 -6.844477 88.963460 1.651587 -3.559125 49.775707 0.000002 0.000001 -0.000003 -0.000000 -0.000002 -0.000002 -0.000001 -0.000000 -0.000000 -0.000001 -0.000000 -0.000000 -0.000001 -0.000000 -0.000000 -0.000001 -0.000000 -0.000000 -0.000001 -0.000000 -0.000000 -0.000001 -0.000000 -0.000000 -0.000001 -0.000000 -0.000000 -0.000001 -0.000000 -0.000000 -0.000001 -0.000000 -0.000000 -0.000001 -0.000000 -0.000000 -0.000000 0.000000 -0.000000 -0.000000 0.000000 -0.000000 -0.000000 0.000000 -0.000000 
-0.159749 69.089287 -4.990502 -3.709555 7.558703 1.699365 0.000000 0.000001 -0.000000 -26.637741 -0.503325 -4.379207 63.273923 4.115531 5.973656 -0.637187 1.076051 -5.446563 -0.000001 -0.000001 0.000000 0.000002 0.000000 -0.000000 -25.194486 -9.021645 -0.073982 43.770171 1.610110 -3.267829 -5.660511 -1.384511 -2.516492 -0.000001 0.000000 0.000000 -0.000002 -0.000000 -0.000000 10.664431 -0.997881 -0.332608 1.975288 -0.226249 -0.284230 1.975343 -0.220772 -0.286582 2.217048 0.624626 0.052426 -2.595890 -9.569965 2.560153 0.000000 -0.000000 -0.000000 0.000000 -0.000000 -0.000000 0.000000 -0.000000 -0.000000 0.000000 -0.000000 -0.000000 -0.000001 0.000000 0.000000 0.000000 -0.000000 -0.000000 -0.000001 0.000000 0.000000 0.000000 -0.000000 -0.000000 0.000000 -0.000000 -0.000000 1.693839 -11.692189 -9.364197 -2.412203 -8.234290 -45.478832 0.001362 -92.963212 0.001392 -125.603682 -3.881815 16.548042 -6.696581 -43.937459 12.019507 -10.258186 26.915429 -7.258533 0.000001 0.000002 0.000000 -4.837588 4.442551 -68.669848 4.220644 5.620059 -73.793603 0.000001 -0.000000 -0.000002 -1.635591 6.069821 -72.045423 3.601481 5.402710 -67.353622 0.000001 -0.000001 -0.000001 -4.346927 5.022055 -71.012965 4.300107 5.642459 -74.603117 -0.000001 -0.000001 0.000002 -7.111811 4.048853 -70.970706 3.312718 5.273527 -64.250387 -0.000000 -0.000002 0.000001 0.000000 -0.000000 -0.000001 4.616526 9.319481 -6.034687 -0.463513 34.828087 43.517287 0.000083 106.477615 -0.000091 -38.394003 -19.090645 8.798510 31.895856 14.960107 2.121223 3.483470 -21.057101 -15.522288 0.000001 0.000000 -0.000001 -1.404653 -0.596125 27.404780 3.082475 -4.383419 70.217767 -0.000003 -0.000001 0.000002 -1.093005 -5.601602 75.557738 4.329277 -4.645625 85.958361 -0.000002 -0.000004 -0.000001 -0.785817 -6.155158 81.287830 3.226431 -4.432432 72.090283 0.000001 0.000001 -0.000005 0.660084 -6.714507 86.734817 1.725872 -3.620522 50.961954 0.000001 0.000000 -0.000001 0.000001 -0.000000 0.000001 -0.000001 -0.000000 0.000000 0.000000 -0.000000 0.000000 -0.000001 -0.000000 0.000000 -0.000001 -0.000000 0.000000 -0.000001 -0.000000 0.000000 0.000000 -0.000000 0.000000 -0.000001 -0.000000 0.000000 -0.000001 -0.000000 0.000000 -0.000001 -0.000000 0.000000 0.000000 -0.000000 0.000000 0.000000 0.000001 -0.000000 0.000000 0.000001 -0.000000 0.000000 0.000001 -0.000000 
-0.475697 70.183441 -11.171958 -4.354383 4.452325 0.626645 -0.000000 0.000000 0.000000 -16.592099 2.054570 -1.101863 60.051877 1.899093 5.451205 -1.027757 0.980433 -6.005273 0.000001 -0.000001 0.000001 0.000002 -0.000000 -0.000000 -21.307658 -6.241475 2.392465 26.634674 2.072300 -2.689322 5.742512 -0.514579 -1.468036 -0.000000 -0.000000 -0.000000 0.000002 0.000001 -0.000001 9.309896 -3.162417 0.675531 1.729253 -0.818037 -0.069610 1.730441 -0.813193 -0.061935 3.014360 2.600732 -0.088288 -1.093761 -5.643983 2.142654 -0.000001 0.000001 -0.000000 -0.000001 0.000001 -0.000000 -0.000001 0.000001 -0.000000 -0.000001 0.000001 -0.000000 -0.000002 0.000001 -0.000000 -0.000001 0.000001 -0.000000 -0.000002 0.000001 -0.000000 -0.000001 0.000001 -0.000000 -0.000001 0.000001 -0.000000 1.661757 -11.795443 -9.601304 -2.263938 -9.051098 -45.775303 -0.027094 -91.266367 -0.027033 -126.694545 -2.844526 17.168287 -6.863898 -43.370298 11.732609 -9.960444 26.316012 -7.258071 0.000002 0.000001 -0.000002 -4.808216 4.435917 -68.565373 4.201991 5.614623 -73.602945 0.000003 -0.000001 -0.000000 -1.543872 6.092824 -71.985249 3.594678 5.399878 -67.281052 0.000002 -0.000001 0.000002 -4.153510 5.111204 -71.151283 4.245265 5.627165 -74.044756 -0.000000 0.000000 -0.000001 -6.827981 4.190203 -71.163475 3.273559 5.254552 -63.823596 -0.000001 0.000000 0.000001 0.000001 0.000000 0.000001 4.593463 9.236857 -5.669537 -0.573060 34.286925 44.289252 0.000034 106.513153 -0.000033 -39.055391 -21.684999 8.751686 29.267296 13.868873 5.606975 3.540337 -18.936493 -19.116914 -0.000002 -0.000001 -0.000000 -1.353340 -0.186836 24.467652 2.836620 -4.287297 66.966153 0.000001 -0.000001 -0.000002 -0.700313 -5.378423 71.388140 4.576629 -4.656473 89.007959 -0.000000 0.000002 -0.000004 0.862643 -6.215419 77.816188 3.162482 -4.411316 71.260853 -0.000003 -0.000001 -0.000003 2.241283 -6.707388 84.185476 1.812140 -3.688673 52.315359 -0.000000 0.000001 -0.000001 0.000001 0.000000 -0.000001 -0.000001 0.000000 0.000000 -0.000001 -0.000000 0.000000 -0.000001 0.000000 -0.000000 -0.000001 0.000000 -0.000000 -0.000001 0.000000 0.000000 -0.000001 -0.000000 0.000000 -0.000001 0.000000 -0.000000 -0.000001 0.000000 -0.000000 -0.000001 0.000000 0.000000 -0.000001 -0.000000 0.000000 -0.000000 0.000000 0.000000 -0.000000 0.000000 0.000000 -0.000000 0.000000 0.000000 
-0.485468 70.600899 -16.054386 -4.133695 1.459180 -0.385990 0.000000 -0.000000 -0.000000 -8.017162 4.677374 -0.330770 54.689519 3.756479 5.295297 -2.760365 0.869472 -6.949838 -0.000002 -0.000001 0.000001 0.000000 0.000000 -0.000000 -18.849000 -3.589915 2.739716 13.218202 1.431028 -2.135272 13.743044 0.922762 7.764909 0.000000 0.000000 0.000001 0.000002 0.000000 0.000000 8.797254 -4.613500 1.365600 1.549042 -1.224928 0.072597 1.550550 -1.220065 0.087128 3.434378 4.234192 -0.323396 -0.345956 -2.427458 1.499827 0.000000 0.000000 -0.000000 0.000000 0.000000 -0.000000 0.000000 0.000000 -0.000000 0.000000 0.000000 -0.000000 -0.000000 0.000000 -0.000000 0.000000 0.000000 -0.000000 -0.000000 0.000000 -0.000000 0.000000 0.000000 -0.000000 0.000000 0.000000 -0.000000 1.628839 -11.898774 -9.838379 -2.327640 -8.744912 -45.159124 -0.007919 -93.037278 -0.007938 -127.108769 -3.201003 19.354079 -7.028218 -42.801763 11.451936 -9.666733 25.716651 -7.250580 -0.000000 -0.000000 -0.000001 -4.778840 4.429386 -68.460864 4.183330 5.609139 -73.412328 0.000001 0.000001 -0.000000 -1.452221 6.115996 -71.925116 3.587842 5.397018 -67.208488 0.000002 -0.000002 0.000002 -3.959703 5.199397 -71.290065 4.190602 5.611303 -73.486422 0.000002 0.000001 -0.000002 -6.543305 4.329573 -71.357213 3.234552 5.235288 -63.396860 0.000001 -0.000000 0.000001 -0.000001 -0.000001 0.000000 4.526269 9.498971 -4.616036 -0.762195 32.442917 44.159526 -0.000002 108.695712 0.000017 -39.657656 -24.374616 8.551082 26.698902 12.502961 9.172773 3.657681 -16.903419 -22.897439 -0.000002 -0.000001 0.000003 -1.272183 0.238878 21.404390 2.586503 -4.172396 63.575763 0.000003 0.000001 -0.000003 -0.292953 -5.223737 67.034215 4.834834 -4.653772 92.188689 0.000000 -0.000002 -0.000003 2.544320 -6.504993 74.190089 3.096157 -4.388310 70.395857 -0.000003 0.000001 0.000001 3.878253 -6.859860 81.524250 1.903810 -3.757551 53.727053 0.000001 0.000000 0.000001 -0.000001 -0.000001 -0.000002 -0.000001 0.000000 -0.000000 -0.000001 0.000000 0.000000 -0.000001 0.000000 -0.000000 -0.000001 0.000000 -0.000000 -0.000001 0.000000 -0.000000 -0.000001 0.000000 0.000000 -0.000001 0.000000 -0.000000 -0.000001 0.000000 -0.000000 -0.000001 0.000000 -0.000000 -0.000001 0.000000 0.000000 0.000000 -0.000000 -0.000000 0.000000 -0.000000 -0.000000 0.000000 -0.000000 -0.000000 
